# xmcd
#
# Track frame offsets:
#       150
#       10962
#       24405
#       37385
#       50347
#       61105
#       75327
#       85165
#       100962
#       112570
#       122575
#       137680
#       151450
#       162532
#       175460
#       190230
#       201430
#       214525
#       231107
#       242152
#       257865
#       269910
#       283100
#       299155
#       310832
#
# Disc length: 4307 seconds
#
# Revision: 1
# Processed by: cddbd v1.4PL0 Copyright (c) Steve Scherf et al.
# Submitted via: MusiCat 1.1
#
DISCID=7010d119
DTITLE=Paulo Sérgio - 1968 e 1972
DYEAR=1900
DGENRE=
TTITLE0=No Dia Em Que Parti
TTITLE1=Gosto Muito de Você
TTITLE2=Sorri Meu Bem
TTITLE3=Se Você Voltar
TTITLE4=Não Sei Te Esquecer
TTITLE5=Pro Diabo Os Conselhos de Vocês
TTITLE6=Não Me Trate Como Um Cão
TTITLE7=Última Canção
TTITLE8=Não Quero Mais Você
TTITLE9=Quando a Saudade Apertar
TTITLE10=Doce Ilusão
TTITLE11=Do Nosso Amor
TTITLE12=Desiludido
TTITLE13=Agora Quem Parte Sou Eu
TTITLE14=Lembranças
TTITLE15=Fiz Um Mundo Pra Nós Dois
TTITLE16=Sem Você
TTITLE17=Minha Vila
TTITLE18=Amor Eterno
TTITLE19=Fiz...
TTITLE20=Idioma do Amor
TTITLE21=Uma História Um Caminho
TTITLE22=Como é Que Eu Vou Poder Viver Tão Triste
TTITLE23=Capela
TTITLE24=Hora de Esquecer o Mal
EXTD=0\n\n\n
EXTT0=
EXTT1=
EXTT2=
EXTT3=
EXTT4=
EXTT5=
EXTT6=
EXTT7=
EXTT8=
EXTT9=
EXTT10=
EXTT11=
EXTT12=
EXTT13=
EXTT14=
EXTT15=
EXTT16=
EXTT17=
EXTT18=
EXTT19=
EXTT20=
EXTT21=
EXTT22=
EXTT23=
EXTT24=
PLAYORDER=
